<?xml version="1.0" encoding="UTF-8"?>
<svg width="53px" height="51px" viewBox="0 0 53 51" version="1.1" xmlns="http://www.w3.org/2000/svg" xmlns:xlink="http://www.w3.org/1999/xlink">
    <!-- Generator: Sketch 43.1 (39012) - http://www.bohemiancoding.com/sketch -->
    <title>Path 2</title>
    <desc>Created with Sketch.</desc>
    <defs></defs>
    <g id="Symbols" stroke="none" stroke-width="1" fill="none" fill-rule="evenodd">
        <g id="Path-2" transform="translate(1.000000, 0.000000)" fill="#BCBCBC">
            <path d="M13.6112282,10.2469658 C13.6213108,9.6961908 13.9246314,8.91467798 14.2954228,8.49379236 L20.0421553,1.97067245 C20.4099429,1.55319649 21.0322607,0.918032159 21.4480957,0.537388673 L21.068364,0.884984217 C21.4770559,0.510879404 22.2581639,0.192676911 22.8132364,0.174251791 L27.0578508,0.0333557418 C27.6128254,0.0149338743 28.2897675,0.39515732 28.5611951,0.867556808 L28.1224597,0.103970433 C28.3977592,0.583108828 29.0604529,1.02194591 29.6077518,1.08472833 L32.3967367,1.40466176 C32.9417414,1.467181 33.5619773,1.9292673 33.7825925,2.43795966 L36.1352111,7.86260447 C36.3555935,8.3707599 36.5456109,9.22985424 36.5598346,9.78961338 L36.8279128,20.339608 C36.8420435,20.8957102 37.3029191,21.390702 37.7523395,21.4348839 L36.8534987,21.3465201 C37.3499148,21.3953221 37.7540786,21.8805066 37.7562587,22.4391578 L37.7617225,23.8392691 C37.763887,24.3939143 37.3670062,25.0261463 36.8498687,25.2630318 L37.7013359,24.8729996 C37.1955685,25.1046769 36.4837355,25.6289404 36.1213091,26.0329429 L32.1199568,30.4933149 C31.7530995,30.9022566 31.1761323,31.5891264 30.8376774,32.0193303 L30.9188223,31.9161886 C30.5774963,32.3500419 30.3007969,33.1420712 30.3007969,33.7032264 L30.3007969,34.5183316 C30.3007969,35.071432 30.6171668,35.8357459 31.0089622,36.2270058 L31.6173988,36.8346106 C32.0085077,37.2251849 32.7569134,37.6691161 33.2865489,37.829552 C33.2865489,37.829552 46.0951219,41.5025036 49.6363268,45.2779202 C53.1775317,49.0533368 48.9596192,49.8029436 48.9596192,49.8029436 C48.4425867,49.9651257 47.5669742,50.0966003 47.017256,50.0966003 L2.90872984,50.0966003 C2.35302475,50.0966003 1.45211739,50.0981539 0.924250378,49.9888255 C0.924250378,49.9888255 -0.502555105,50.4001729 0.0955636218,47.8390465 C0.693682349,45.2779202 3.81729683,41.4949024 19.663405,35.9241794 C19.5175571,33.2167302 19.7581483,33.4549373 19.7581483,33.4549373 C19.9272687,32.934275 19.7320461,32.2189859 19.3133988,31.8496115 L19.0917667,31.6540647 C18.677018,31.2881301 18.0002232,30.6874397 17.5946769,30.3253955 L14.7466383,27.7828602 C14.3345672,27.4149911 13.6864922,26.8032682 13.2923385,26.4097663 L13.5594915,26.6764775 C13.168375,26.2860078 12.6607745,25.560405 12.4308716,25.066828 L12.8513125,25.9694695 C12.6191094,25.4709544 12.4290732,24.6234398 12.4268343,24.0714415 L12.4192315,22.1970089 C12.4170017,21.6472721 12.8664569,21.1951634 13.4109502,21.1873701 L12.4151941,21.2016224 C12.965135,21.1937511 13.4192501,20.7339764 13.4292064,20.1901038 L13.6112282,10.2469658 Z"></path>
        </g>
    </g>
</svg>